<svg xmlns="http://www.w3.org/2000/svg" width="1200" height="630" viewBox="0 0 1200 630"><defs><linearGradient id="bg" x1="0" x2="1"><stop stop-color="#ffffff"/><stop offset=".52" stop-color="#f7f5ff"/><stop offset="1" stop-color="#effbf8"/></linearGradient><linearGradient id="t" x1="0" x2="1"><stop stop-color="#45cdb0"/><stop offset=".5" stop-color="#5a7dff"/><stop offset="1" stop-color="#8a52f2"/></linearGradient></defs><rect width="1200" height="630" fill="url(#bg)"/><g opacity=".12" stroke="#7657ff"><path d="M0 110H1200M0 520H1200M100 0V630M1100 0V630"/></g><rect x="84" y="78" width="64" height="64" rx="18" fill="#17213f"/><path d="M116 90 138 99v17c0 15-9 26-22 31-13-5-22-16-22-31V99zM116 102v32M100 118h32" fill="none" stroke="#fff" stroke-width="4"/><text x="168" y="120" font-family="Arial" font-size="40" font-weight="700" fill="#0c1530">KlaroPoint</text><text x="84" y="305" font-family="Arial" font-size="84" font-weight="700" fill="#0c1530">Recover</text><text x="84" y="398" font-family="Arial" font-size="84" font-weight="700" fill="url(#t)">Found Money.</text><text x="84" y="468" font-family="Arial" font-size="28" fill="#667289">Clinical revenue integrity, automated.</text><g transform="translate(820 120)"><circle cx="140" cy="170" r="150" fill="none" stroke="#7657ff" opacity=".12"/><circle cx="140" cy="170" r="105" fill="none" stroke="#45d7b6" opacity=".22"/><path d="M140 70 220 100v64c0 60-32 102-80 123-48-21-80-63-80-123v-64z" fill="#7657ff"/><path d="m104 172 25 25 52-62" fill="none" stroke="#fff" stroke-width="16" stroke-linecap="round" stroke-linejoin="round"/></g></svg>